<svg width="279" height="225" viewBox="0 0 279 225" fill="none" xmlns="http://www.w3.org/2000/svg">
<path fill-rule="evenodd" clip-rule="evenodd" d="M6.40782 221.674L66.0641 8.47611L120.806 79.5105L78.9914 218.995C78.3183 221.241 79.9998 223.5 82.344 223.5H230.967C233.872 223.5 235.513 220.165 233.739 217.864L128.652 81.5002H271.575L240.619 178.238L245.381 179.762L276.964 81.0669C277.687 78.8084 276.002 76.5002 273.63 76.5002H125V76.7617L68.1981 3.05409C66.4396 0.772263 62.8315 1.47331 62.0553 4.24742L1.59277 220.326L6.40782 221.674ZM84.3597 218.5L124.564 84.387L227.917 218.5H84.3597Z" fill="white"/>
<path d="M66.0641 8.47611L66.8561 7.8657L65.6386 6.28573L65.1011 8.20664L66.0641 8.47611ZM6.40782 221.674L6.13836 222.637L7.10137 222.906L7.37083 221.943L6.40782 221.674ZM120.806 79.5105L121.764 79.7977L121.911 79.3064L121.598 78.9001L120.806 79.5105ZM78.9914 218.995L78.0336 218.708L78.0336 218.708L78.9914 218.995ZM233.739 217.864L232.947 218.474L232.947 218.474L233.739 217.864ZM128.652 81.5002V80.5002H126.619L127.86 82.1106L128.652 81.5002ZM271.575 81.5002L272.528 81.8049L272.945 80.5002H271.575V81.5002ZM240.619 178.238L239.667 177.933L239.362 178.886L240.314 179.191L240.619 178.238ZM245.381 179.762L245.077 180.715L246.029 181.019L246.334 180.067L245.381 179.762ZM276.964 81.0669L277.916 81.3716L277.916 81.3716L276.964 81.0669ZM125 76.5002V75.5002H124V76.5002H125ZM125 76.7617L124.208 77.3721L126 79.6976V76.7617H125ZM68.1981 3.05409L68.9902 2.44368L68.9902 2.44368L68.1981 3.05409ZM62.0553 4.24742L63.0183 4.51689L63.0183 4.51689L62.0553 4.24742ZM1.59277 220.326L0.629764 220.057L0.360297 221.02L1.32331 221.29L1.59277 220.326ZM124.564 84.387L125.356 83.7765L124.166 82.2322L123.606 84.0998L124.564 84.387ZM84.3597 218.5L83.4018 218.213L83.0159 219.5H84.3597V218.5ZM227.917 218.5V219.5H229.951L228.71 217.89L227.917 218.5ZM65.1011 8.20664L5.44481 221.404L7.37083 221.943L67.0271 8.74558L65.1011 8.20664ZM121.598 78.9001L66.8561 7.8657L65.272 9.08652L120.014 80.1209L121.598 78.9001ZM79.9493 219.282L121.764 79.7977L119.848 79.2234L78.0336 218.708L79.9493 219.282ZM82.344 222.5C80.6696 222.5 79.4685 220.886 79.9493 219.282L78.0336 218.708C77.1681 221.595 79.33 224.5 82.344 224.5V222.5ZM230.967 222.5H82.344V224.5H230.967V222.5ZM232.947 218.474C234.214 220.118 233.042 222.5 230.967 222.5V224.5C234.703 224.5 236.812 220.212 234.532 217.253L232.947 218.474ZM127.86 82.1106L232.947 218.474L234.532 217.253L129.444 80.8897L127.86 82.1106ZM271.575 80.5002H128.652V82.5002H271.575V80.5002ZM241.572 178.543L272.528 81.8049L270.623 81.1954L239.667 177.933L241.572 178.543ZM245.686 178.81L240.924 177.286L240.314 179.191L245.077 180.715L245.686 178.81ZM276.011 80.7621L244.429 179.457L246.334 180.067L277.916 81.3716L276.011 80.7621ZM273.63 77.5002C275.324 77.5002 276.528 79.1489 276.011 80.7621L277.916 81.3716C278.845 78.468 276.679 75.5002 273.63 75.5002V77.5002ZM125 77.5002H273.63V75.5002H125V77.5002ZM126 76.7617V76.5002H124V76.7617H126ZM67.406 3.66451L124.208 77.3721L125.792 76.1513L68.9902 2.44368L67.406 3.66451ZM63.0183 4.51689C63.5727 2.53536 66.15 2.03464 67.406 3.66451L68.9902 2.44368C66.7293 -0.490118 62.0903 0.411256 61.0923 3.97796L63.0183 4.51689ZM2.55578 220.596L63.0183 4.51689L61.0923 3.97795L0.629764 220.057L2.55578 220.596ZM6.67729 220.711L1.86224 219.363L1.32331 221.29L6.13836 222.637L6.67729 220.711ZM123.606 84.0998L83.4018 218.213L85.3175 218.787L125.522 84.6741L123.606 84.0998ZM228.71 217.89L125.356 83.7765L123.772 84.9974L227.125 219.111L228.71 217.89ZM84.3597 219.5H227.917V217.5H84.3597V219.5Z" fill="white"/>
</svg>
