<svg width="100" height="80" viewBox="0 0 100 80" fill="none" xmlns="http://www.w3.org/2000/svg">
<path fill-rule="evenodd" clip-rule="evenodd" d="M20.7703 0.169678C15.0645 0.169678 10.8424 5.16382 11.0314 10.5798C11.2129 15.7832 10.9771 22.5222 9.28066 28.0179C7.57812 33.5291 4.70078 37.0214 0 37.4697V42.5306C4.70078 42.9798 7.57812 46.4705 9.28047 51.9824C10.9771 57.4781 11.2127 64.2171 11.0312 69.4205C10.8422 74.8357 15.0643 79.8306 20.7711 79.8306H79.2373C84.9432 79.8306 89.1645 74.8365 88.9754 69.4205C88.7939 64.2171 89.0297 57.4781 90.7262 51.9824C92.4287 46.4705 95.299 42.9785 100 42.5306V37.4697C95.2992 37.0205 92.4289 33.5298 90.7262 28.0179C89.0295 22.523 88.7939 15.7832 88.9754 10.5798C89.1645 5.1646 84.9432 0.169678 79.2373 0.169678H20.7695H20.7703ZM67.7967 49.2062C67.7967 56.6638 62.234 61.1867 53.0025 61.1867H37.2881C36.8386 61.1867 36.4075 61.0081 36.0896 60.6902C35.7717 60.3724 35.5932 59.9413 35.5932 59.4917V20.5087C35.5932 20.0592 35.7717 19.6281 36.0896 19.3102C36.4075 18.9924 36.8386 18.8138 37.2881 18.8138H52.9131C60.6105 18.8138 65.6623 22.9833 65.6623 29.3849C65.6623 33.8781 62.2639 37.9005 57.9344 38.6052V38.8396C63.8281 39.4861 67.7967 43.5681 67.7967 49.2062ZM51.2891 24.1867H42.3289V36.8429H49.8756C55.7096 36.8429 58.9264 34.4937 58.9264 30.2947C58.9258 26.3595 56.1602 24.1867 51.2891 24.1867ZM42.3289 41.8646V55.8121H51.6187C57.693 55.8121 60.9104 53.3748 60.9104 48.7943C60.9104 44.2138 57.6027 41.8638 51.2281 41.8638H42.3289V41.8646Z" fill="#7952B3"/>
</svg>
