<svg width="100" height="60" viewBox="0 0 100 60" fill="none" xmlns="http://www.w3.org/2000/svg">
<path d="M50 0.00805664C36.6663 0.00805664 28.3331 6.67305 24.9994 20.0018C30 13.3368 35.8334 10.8384 42.4997 12.504C46.3036 13.4543 49.0221 16.2141 52.032 19.2677C56.9339 24.2421 62.6072 29.9993 75.0006 29.9993C88.3331 29.9993 96.6675 23.3343 100 10.0043C95.0006 16.6693 89.1672 19.169 82.4997 17.5033C78.697 16.553 75.9785 13.7932 72.9686 10.7396C68.0668 5.76521 62.3921 0.00805664 50 0.00805664ZM24.9994 29.9993C11.6669 29.9993 3.3325 36.6642 0 49.9942C4.99937 43.3292 10.8328 40.8295 17.5003 42.4964C21.303 43.448 24.0215 46.2066 27.0314 49.2589C31.9332 54.2333 37.6079 59.9917 50 59.9917C63.3338 59.9917 71.6669 53.3267 75.0006 39.9967C70 46.6617 64.1666 49.1614 57.5003 47.4945C53.6964 46.5454 50.9779 43.7844 47.968 40.732C43.0662 35.7577 37.3928 29.9993 24.9994 29.9993Z" fill="#06B6D4"/>
</svg>
